<svg xmlns="http://www.w3.org/2000/svg" version="1.1" xmlns:xlink="http://www.w3.org/1999/xlink" xmlns:svgjs="http://svgjs.com/svgjs" width="1800" height="560" preserveAspectRatio="none" viewBox="0 0 1800 560"><g mask="url(&quot;#SvgjsMask5040&quot;)" fill="none"><rect width="1800" height="560" x="0" y="0" fill="url(#SvgjsRadialGradient5041)"></rect><use xlink:href="#SvgjsG5053" transform="translate(0, 0)" fill="rgba(226, 160, 255, 0.25)"></use><use xlink:href="#SvgjsG5053" transform="translate(0, 378.00000000000006)" fill="rgba(226, 160, 255, 0.25)"></use><use xlink:href="#SvgjsG5053" transform="translate(378.00000000000006, 0)" fill="rgba(226, 160, 255, 0.25)"></use><use xlink:href="#SvgjsG5053" transform="translate(378.00000000000006, 378.00000000000006)" fill="rgba(226, 160, 255, 0.25)"></use><use xlink:href="#SvgjsG5053" transform="translate(756.0000000000001, 0)" fill="rgba(255, 193, 207, 0.25)"></use><use xlink:href="#SvgjsG5053" transform="translate(756.0000000000001, 378.00000000000006)" fill="rgba(226, 160, 255, 0.25)"></use><use xlink:href="#SvgjsG5053" transform="translate(1134.0000000000002, 0)" fill="rgba(226, 160, 255, 0.25)"></use><use xlink:href="#SvgjsG5053" transform="translate(1134.0000000000002, 378.00000000000006)" fill="rgba(226, 160, 255, 0.25)"></use><use xlink:href="#SvgjsG5053" transform="translate(1512.0000000000002, 0)" fill="rgba(226, 160, 255, 0.25)"></use><use xlink:href="#SvgjsG5053" transform="translate(1512.0000000000002, 378.00000000000006)" fill="rgba(255, 193, 207, 0.25)"></use></g><defs><mask id="SvgjsMask5040"><rect width="1800" height="560" fill="#ffffff"></rect></mask><radialGradient cx="50%" cy="50%" r="942.55" gradientUnits="userSpaceOnUse" id="SvgjsRadialGradient5041"><stop stop-color="rgba(214, 255, 183, 1)" offset="0.1"></stop><stop stop-color="rgba(88, 53, 94, 1)" offset="0.47"></stop><stop stop-color="rgba(122, 231, 199, 1)" offset="0.89"></stop></radialGradient><g id="SvgjsG5051"><path d="M6.11 7.38L13.85 9.31l-0.54 2.15-7.74-1.93z"></path><path d="M13.85 3.09l1.31 2.17-6.89 4.14L6.97 7.22z"></path><path d="M5.57 9.54L7.5 1.8l2.15 0.54L7.72 10.08zM-0.03 4.89l7.08 11.77-1.94 1.17L-1.97 6.06z"></path><path d="M3.28 2.36l1.17 1.94-5.49 3.3-1.17-1.94z m6.32 10.51l1.16 1.95-5.48 3.29-1.17-1.94z"></path></g><g id="SvgjsG5052"><path d="M1.44 11.61C-0.75 7.96 0.43 3.22 4.08 1.02 7.73-1.17 12.47 0.01 14.67 3.66S15.67 12.06 12.03 14.25c-3.65 2.19-8.4 1-10.59-2.64z m1.63-0.98c1.65 2.74 5.22 3.64 7.98 1.98 2.74-1.65 3.63-5.23 1.98-7.97-1.65-2.74-5.23-3.63-7.97-1.98-2.75 1.65-3.64 5.22-1.99 7.97z"></path><path d="M7.2 8.19a0.57 0.57 0 0 1-0.25-0.49 0.58 0.58 0 0 1 0.21-0.43L11 4.95a0.58 0.58 0 0 1 0.59 1l-2.98 1.79 2.74 1.83a0.58 0.58 0 0 1 0.16 0.8c-0.18 0.27-0.54 0.34-0.81 0.17l-3.5-2.34z"></path></g><g id="SvgjsG5049"><path d="M4.63 3.63L3.34 1.48 4.48 0.8l1.29 2.15-1.14 0.68zM8.7 2.51L9.3 0.08l1.29 0.32-0.61 2.43-1.28-0.32z m-5.85 3.51l-0.32 1.29-2.43-0.61 0.32-1.28 2.43 0.6z m10.19-0.29l-0.68-1.14L14.51 3.3l0.69 1.14-2.16 1.29z m-10.07 4.5l0.69 1.14-2.16 1.3-0.68-1.14 2.15-1.3zM13.17 9.96l0.31-1.3 2.44 0.62-0.32 1.29-2.43-0.61z m-5.82 3.5l-0.63 2.44-1.28-0.32 0.61-2.43 1.3 0.31z m5.36 1.03l-1.14 0.68-1.3-2.15L11.41 12.34l1.3 2.15z"></path><path d="M5.8 4.31a4.18 4.18 0 1 0 4.31 7.17 4.18 4.18 0 1 0-4.31-7.17"></path></g><g id="SvgjsG5048"><path d="M10.5 14.94c0.15 0.25 0.5 0.36 0.77 0.25 0 0 0.38-0.16 0.8-0.42s0.74-0.51 0.74-0.51c0.23-0.19 0.29-0.54 0.14-0.8l-0.78-1.3c-0.15-0.25-0.15-0.61 0-0.8s0.73-0.66 1.02-0.59l1.48 0.37c0.29 0.07 0.6-0.1 0.7-0.38l0.43-1.74c0.05-0.29-0.15-0.59-0.44-0.66l-1.48-0.37c-0.29-0.07-0.54-0.33-0.55-0.56s0.05-0.99 0.3-1.14L14.94 5.5c0.25-0.15 0.36-0.5 0.25-0.77 0 0-0.16-0.38-0.42-0.8s-0.51-0.74-0.51-0.74c-0.19-0.23-0.54-0.29-0.8-0.14l-1.3 0.78c-0.25 0.15-0.61 0.15-0.8 0s-0.66-0.73-0.59-1.02l0.37-1.48C11.21 1.04 11.04 0.73 10.76 0.63l-1.74-0.43c-0.29-0.05-0.59 0.15-0.66 0.44l-0.37 1.48c-0.07 0.29-0.33 0.54-0.56 0.55s-0.99-0.05-1.14-0.3L5.5 1.06c-0.15-0.25-0.5-0.36-0.77-0.25 0 0-0.38 0.16-0.8 0.42s-0.74 0.51-0.74 0.51c-0.23 0.19-0.29 0.54-0.14 0.8l0.78 1.3c0.15 0.25 0.15 0.61 0 0.8-0.16 0.19-0.73 0.66-1.02 0.59l-1.48-0.37C1.04 4.79 0.73 4.96 0.63 5.24l-0.43 1.74c-0.05 0.29 0.15 0.59 0.44 0.66l1.48 0.37c0.29 0.07 0.54 0.33 0.55 0.56s-0.05 0.99-0.3 1.14l-1.31 0.79c-0.25 0.15-0.36 0.5-0.25 0.77 0 0 0.16 0.38 0.42 0.8s0.51 0.74 0.51 0.74c0.19 0.23 0.54 0.29 0.8 0.14l1.3-0.78c0.25-0.15 0.61-0.15 0.8 0.01 0.19 0.16 0.66 0.73 0.59 1.01l-0.37 1.48c-0.07 0.29 0.1 0.6 0.38 0.7l1.74 0.43c0.29 0.05 0.59-0.15 0.66-0.43l0.37-1.48c0.07-0.29 0.33-0.54 0.56-0.56 0.24-0.02 0.99 0.05 1.14 0.3l0.79 1.31zM5.52 9.49c-0.82-1.37-0.38-3.14 0.99-3.97 1.37-0.82 3.15-0.38 3.97 0.99S10.86 9.66 9.49 10.48 6.34 10.86 5.52 9.49z"></path></g><g id="SvgjsG5043"><path d="M6.57 3.49c0.42 0.7 1.34 0.93 2.04 0.51 0.7-0.43 0.93-1.34 0.51-2.04a1.49 1.49 0 0 0-2.04-0.51c-0.7 0.42-0.93 1.33-0.51 2.04z"></path><path d="M8.36 4.26l-1.1 0.66L6.08 2.97c-0.57-0.94-1.79-0.21-1.22 0.73l1.55 2.57c0.22 0.38 0.67 0.43 1 0.22L9.09 5.48c0.92-0.55 0.19-1.77-0.73-1.22z m1.49 0.99L12.91 10.34c0.45 0.75 0.24 1.48-0.41 1.87l-1.84 1.1L6.89 7.03 9.85 5.25z"></path><path d="M8.35 0.35c1-0.6 0.17-2-0.83-1.39L-0.52 3.79l0.85 1.42L2.4 3.97 8.91 14.79l-2.06 1.24 0.83 1.38L13.89 13.68c1.06-0.63 0.21-2.04-0.84-1.4l-2.48 1.49L4.06 2.93 8.35 0.35z"></path></g><g id="SvgjsG5050"><path d="M10.58 5.86c0.66 1.1 2.09 1.44 3.2 0.77C14.89 5.97 15.25 4.54 14.6 3.45S12.51 2 11.4 2.67c-1.11 0.66-1.47 2.09-0.82 3.19z m0.67 2.22c0.51 0.93 0.01 1.75 0.01 1.75l-2.3 5.36a1.33 1.33 0 0 1-0.52 0.58c-0.63 0.38-1.45 0.18-1.83-0.44-0.09-0.15-0.14-0.31-0.16-0.47l-0.57-2.07-1.78 1.08L0.42 7.73 2.2 6.66l-1.56-1.47a1.31 1.31 0 0 1-0.33-0.36C-0.07 4.2 0.14 3.39 0.77 3.01c0.24-0.14 0.5-0.21 0.76-0.19l5.82 0.49s0.97-0.06 1.54 0.82L11.25 8.08zM3.5 10.05l2.15 1.83-0.02-0.06c-0.48-1.86 2-2.52 2.47-0.65l0.06 0.26 2.38-1.43-2.85-2.46-0.84-3.68L4.47 5.29l0.21 0.17c1.42 1.3-0.32 3.18-1.74 1.89l-0.04-0.05 0.6 2.75zM4.64 17.94c0.09 0.16 0.3 0.21 0.46 0.11a0.33 0.33 0 0 0 0.11-0.45L-2.23 5.22c-0.09-0.15-0.3-0.21-0.45-0.11-0.16 0.1-0.21 0.3-0.12 0.45l7.44 12.38z"></path></g><g id="SvgjsG5044"><path d="M7.6 17.3l0 0s1.03-4.15 1.04-4.15a0.6 0.6 0 0 0-0.45-0.73L6.28 11.95c-0.74-0.19-0.69-1.03-0.45-2.74 0.16-1.13 0.47-2.5 0.96-3.83 0.34-0.93 0.75-1.81 1.52-1.62 0 0 1.91 0.48 1.92 0.48l0 0c0.34 0.09 0.66-0.13 0.74-0.44l0-0.01L12.03-0.48c0.08-0.33-0.12-0.65-0.44-0.73L9.67-1.69C8.75-1.81 5.14-1.14 3.14 6.48c-2.11 8.03 0.91 10.58 1.81 10.78 0 0 1.91 0.49 1.91 0.49l0 0c0.34 0.09 0.66-0.13 0.74-0.45z"></path></g><g id="SvgjsG5046"><path d="M6.52 12.64c-2.82-0.7-4.54-3.56-3.83-6.38 0.7-2.82 3.56-4.54 6.38-3.83 1.34 0.33 3.21 1.12 4.55 3.35 2.45 4.07 4.28 4.69 4.28 4.69-4.89 2.94-8.55 2.88-11.38 2.17z"></path><path d="M2.43 5.77L3.29 4.48l7.05 3.27z"></path><path d="M10.34 7.75l-0.39 1.57-11.26-2.8 0.4-1.58z"></path></g><g id="SvgjsG5042"><path d="M12.51 14.42l0.45-1.77L9.08 6.18C9.72 5.04 9.75 3.61 9.04 2.42 7.97 0.64 5.66 0.08 3.87 1.15c-1.79 1.08-2.38 3.39-1.32 5.17 0.72 1.19 1.99 1.83 3.3 1.8l0.78 1.3 1.65 0.41-0.32 1.26 1.22 0.3-0.31 1.25 1.26 0.31-0.32 1.26 2.16 0.54c0.32 0.07 0.46-0.01 0.54-0.33zM4.1 3.47c-0.28-0.48-0.12-1.09 0.35-1.37 0.48-0.29 1.09-0.14 1.37 0.33 0.28 0.46 0.13 1.08-0.35 1.37-0.47 0.28-1.09 0.13-1.37-0.33z"></path></g><g id="SvgjsG5045"><path d="M9.28 15.74l-0.07-7.82L9.8 7.57c0.66-0.4 0.51-1.29 0.51-1.29-0.05-0.6 0.46-0.85 0.46-0.85 0.57-0.34 1.07 0.06 1.2 0.28 0.23 0.38 0.24 0.89-0.22 1.23-0.73 0.52-0.01 1.27 0.6 0.9C12.94 7.49 13.64 6.35 12.91 5.14 12.12 3.84 10.62 4.23 10.22 4.47c-0.3 0.18-0.56 0.4-0.77 0.78-0.35 0.65-0.06 1.34-0.41 1.56l-0.36 0.21L1.75 3.24C1.06 2.87 0.28 3.2-0.09 3.59c-0.35 0.38-0.6 1.11-0.14 1.88l6.56 10.91c0.52 0.86 1.25 0.96 1.74 0.82 0.51-0.14 1.19-0.55 1.2-1.46z m-1.99 0.08L0.74 4.91c-0.23-0.35 0.14-0.86 0.57-0.64L8.05 7.96l0.09 7.65c-0.04 0.5-0.62 0.59-0.85 0.21z"></path></g><g id="SvgjsG5047"><path d="M10.9 6.62l-0.44 0.27c0.31 0.39 0.66 0.12 0.44-0.27z m0.28-0.76L11.57 5.62c-0.24-0.28-0.57-0.07-0.39 0.24z"></path><path d="M12.74 5.22c-0.58-0.97-1.84-1.28-2.81-0.7-0.97 0.58-1.28 1.84-0.7 2.8 0.58 0.97 1.84 1.28 2.81 0.7 0.97-0.58 1.28-1.84 0.7-2.8z m-2.73 1.93l-0.31 0.19-0.27-0.44 0.32-0.19c-0.11-0.27-0.15-0.87 0.35-1.21l0.28 0.46c-0.11 0.11-0.25 0.24-0.19 0.49l0.52-0.31c-0.13-0.31-0.25-0.8 0.21-1.08 0.52-0.31 1.02 0.16 1.09 0.29l0.31-0.19 0.26 0.44-0.31 0.18c0.16 0.3 0.17 0.87-0.29 1.15l-0.27-0.46c0.13-0.09 0.2-0.28 0.12-0.42l-0.47 0.29c0.17 0.37 0.28 0.85-0.18 1.13-0.41 0.24-0.95 0.01-1.17-0.32z m-3.86 4.34c-0.58-0.97-1.84-1.28-2.8-0.7s-1.28 1.84-0.7 2.8 1.84 1.28 2.8 0.7c0.97-0.58 1.28-1.84 0.7-2.8zM4.6 13.49l-0.43 0.26-0.32-0.55-0.6 0.36-0.28-0.46L3.57 12.74l-0.35-0.59 0.42-0.25 0.35 0.59 0.89-1.58 0.31 0.51-0.55 0.97 1.14 0.01 0.28 0.47L4.26 12.92l0.34 0.57z m0.22-8.72c-0.58-0.97-1.84-1.28-2.81-0.7S0.73 5.91 1.31 6.88s1.84 1.28 2.81 0.7 1.28-1.84 0.7-2.81z m-1.39 0.91l-0.41 0.25-0.19-0.31-1 0.6L1.56 5.77l1-0.6-0.16-0.26 0.41-0.25 0.16 0.26 0.38-0.22c0.14-0.09 0.67-0.21 0.98 0.31 0.32 0.54-0.03 0.91-0.39 1.13l-0.26-0.44c0.23-0.14 0.33-0.24 0.22-0.42-0.12-0.19-0.27-0.14-0.48-0.02l-0.17 0.11 0.18 0.31z m0.19 1.25c-0.26-0.33-0.5-0.3-0.74-0.15l-0.52 0.31-0.27-0.44L3.51 5.8l0.26 0.44-0.22 0.14c0.17 0.03 0.35 0.07 0.5 0.3l-0.43 0.25z"></path><path d="M10.26-2.69l-6.8 4.09 4.84 8.05c-0.72 0.64-0.91 1.72-0.39 2.58s1.56 1.2 2.46 0.86L11.7 15.11 18.5 11.03 10.26-2.69z m-0.43 13.32l0.24 0.39-0.38 0.23-0.19-0.32c-0.32 0.25-0.59 0.14-0.71 0.19l0.65 1.08-0.38 0.23L8.09 10.81l0.38-0.23c0.23 0.11 0.6 0.02 0.73-0.14l-0.2-0.34 0.38-0.23 0.17 0.28c0.13-0.18 0.19-0.21 0.34-0.31s0.73-0.26 1.11 0.39c0.36 0.61-0.03 1.08-0.38 1.3l-0.28-0.46c0.2-0.16 0.32-0.35 0.2-0.55-0.18-0.31-0.38-0.19-0.44-0.15s-0.22 0.15-0.27 0.26z m2.39 2.41l-0.72-1.19c0.28-0.6 0.27-1.32-0.09-1.93S10.41 8.96 9.75 8.93L5.53 1.91 9.74-0.62l6.69 11.13L12.22 13.04z"></path></g><g id="SvgjsG5053"><use xlink:href="#SvgjsG5042" transform="translate(0, 0) scale(1.8)" fill="rgba(226, 160, 255, 0.25)"></use><use xlink:href="#SvgjsG5043" transform="translate(0, 37.800000000000004) scale(1.8)" fill="rgba(255, 193, 207, 0.25)"></use><use xlink:href="#SvgjsG5044" transform="translate(0, 75.60000000000001) scale(1.8)" fill="rgba(255, 193, 207, 0.25)"></use><use xlink:href="#SvgjsG5045" transform="translate(0, 113.4) scale(1.8)" fill="rgba(226, 160, 255, 0.25)"></use><use xlink:href="#SvgjsG5044" transform="translate(0, 151.20000000000002) scale(1.8)" fill="rgba(226, 160, 255, 0.25)"></use><use xlink:href="#SvgjsG5046" transform="translate(0, 189.00000000000003) scale(1.8)" fill="rgba(255, 193, 207, 0.25)"></use><use xlink:href="#SvgjsG5047" transform="translate(0, 226.8) scale(1.8)" fill="rgba(255, 193, 207, 0.25)"></use><use xlink:href="#SvgjsG5048" transform="translate(0, 264.6) scale(1.8)" fill="rgba(255, 193, 207, 0.25)"></use><use xlink:href="#SvgjsG5044" transform="translate(0, 302.40000000000003) scale(1.8)" fill="rgba(226, 160, 255, 0.25)"></use><use xlink:href="#SvgjsG5044" transform="translate(0, 340.20000000000005) scale(1.8)" fill="rgba(226, 160, 255, 0.25)"></use><use xlink:href="#SvgjsG5046" transform="translate(37.800000000000004, 0) scale(1.8)" fill="rgba(226, 160, 255, 0.25)"></use><use xlink:href="#SvgjsG5047" transform="translate(37.800000000000004, 37.800000000000004) scale(1.8)" fill="rgba(255, 193, 207, 0.25)"></use><use xlink:href="#SvgjsG5047" transform="translate(37.800000000000004, 75.60000000000001) scale(1.8)" fill="rgba(226, 160, 255, 0.25)"></use><use xlink:href="#SvgjsG5044" transform="translate(37.800000000000004, 113.4) scale(1.8)" fill="rgba(226, 160, 255, 0.25)"></use><use xlink:href="#SvgjsG5043" transform="translate(37.800000000000004, 151.20000000000002) scale(1.8)" fill="rgba(226, 160, 255, 0.25)"></use><use xlink:href="#SvgjsG5049" transform="translate(37.800000000000004, 189.00000000000003) scale(1.8)" fill="rgba(255, 193, 207, 0.25)"></use><use xlink:href="#SvgjsG5047" transform="translate(37.800000000000004, 226.8) scale(1.8)" fill="rgba(226, 160, 255, 0.25)"></use><use xlink:href="#SvgjsG5049" transform="translate(37.800000000000004, 264.6) scale(1.8)" fill="rgba(255, 193, 207, 0.25)"></use><use xlink:href="#SvgjsG5042" transform="translate(37.800000000000004, 302.40000000000003) scale(1.8)" fill="rgba(226, 160, 255, 0.25)"></use><use xlink:href="#SvgjsG5044" transform="translate(37.800000000000004, 340.20000000000005) scale(1.8)" fill="rgba(255, 193, 207, 0.25)"></use><use xlink:href="#SvgjsG5047" transform="translate(75.60000000000001, 0) scale(1.8)" fill="rgba(255, 193, 207, 0.25)"></use><use xlink:href="#SvgjsG5050" transform="translate(75.60000000000001, 37.800000000000004) scale(1.8)" fill="rgba(226, 160, 255, 0.25)"></use><use xlink:href="#SvgjsG5044" transform="translate(75.60000000000001, 75.60000000000001) scale(1.8)" fill="rgba(255, 193, 207, 0.25)"></use><use xlink:href="#SvgjsG5043" transform="translate(75.60000000000001, 113.4) scale(1.8)" fill="rgba(255, 193, 207, 0.25)"></use><use xlink:href="#SvgjsG5048" transform="translate(75.60000000000001, 151.20000000000002) scale(1.8)" fill="rgba(226, 160, 255, 0.25)"></use><use xlink:href="#SvgjsG5051" transform="translate(75.60000000000001, 189.00000000000003) scale(1.8)" fill="rgba(226, 160, 255, 0.25)"></use><use xlink:href="#SvgjsG5045" transform="translate(75.60000000000001, 226.8) scale(1.8)" fill="rgba(226, 160, 255, 0.25)"></use><use xlink:href="#SvgjsG5050" transform="translate(75.60000000000001, 264.6) scale(1.8)" fill="rgba(255, 193, 207, 0.25)"></use><use xlink:href="#SvgjsG5047" transform="translate(75.60000000000001, 302.40000000000003) scale(1.8)" fill="rgba(255, 193, 207, 0.25)"></use><use xlink:href="#SvgjsG5042" transform="translate(75.60000000000001, 340.20000000000005) scale(1.8)" fill="rgba(226, 160, 255, 0.25)"></use><use xlink:href="#SvgjsG5048" transform="translate(113.4, 0) scale(1.8)" fill="rgba(255, 193, 207, 0.25)"></use><use xlink:href="#SvgjsG5051" transform="translate(113.4, 37.800000000000004) scale(1.8)" fill="rgba(226, 160, 255, 0.25)"></use><use xlink:href="#SvgjsG5052" transform="translate(113.4, 75.60000000000001) scale(1.8)" fill="rgba(255, 193, 207, 0.25)"></use><use xlink:href="#SvgjsG5044" transform="translate(113.4, 113.4) scale(1.8)" fill="rgba(226, 160, 255, 0.25)"></use><use xlink:href="#SvgjsG5044" transform="translate(113.4, 151.20000000000002) scale(1.8)" fill="rgba(226, 160, 255, 0.25)"></use><use xlink:href="#SvgjsG5042" transform="translate(113.4, 189.00000000000003) scale(1.8)" fill="rgba(255, 193, 207, 0.25)"></use><use xlink:href="#SvgjsG5045" transform="translate(113.4, 226.8) scale(1.8)" fill="rgba(226, 160, 255, 0.25)"></use><use xlink:href="#SvgjsG5051" transform="translate(113.4, 264.6) scale(1.8)" fill="rgba(226, 160, 255, 0.25)"></use><use xlink:href="#SvgjsG5048" transform="translate(113.4, 302.40000000000003) scale(1.8)" fill="rgba(255, 193, 207, 0.25)"></use><use xlink:href="#SvgjsG5048" transform="translate(113.4, 340.20000000000005) scale(1.8)" fill="rgba(255, 193, 207, 0.25)"></use><use xlink:href="#SvgjsG5047" transform="translate(151.20000000000002, 0) scale(1.8)" fill="rgba(226, 160, 255, 0.25)"></use><use xlink:href="#SvgjsG5051" transform="translate(151.20000000000002, 37.800000000000004) scale(1.8)" fill="rgba(255, 193, 207, 0.25)"></use><use xlink:href="#SvgjsG5052" transform="translate(151.20000000000002, 75.60000000000001) scale(1.8)" fill="rgba(255, 193, 207, 0.25)"></use><use xlink:href="#SvgjsG5044" transform="translate(151.20000000000002, 113.4) scale(1.8)" fill="rgba(226, 160, 255, 0.25)"></use><use xlink:href="#SvgjsG5042" transform="translate(151.20000000000002, 151.20000000000002) scale(1.8)" fill="rgba(226, 160, 255, 0.25)"></use><use xlink:href="#SvgjsG5049" transform="translate(151.20000000000002, 189.00000000000003) scale(1.8)" fill="rgba(255, 193, 207, 0.25)"></use><use xlink:href="#SvgjsG5044" transform="translate(151.20000000000002, 226.8) scale(1.8)" fill="rgba(255, 193, 207, 0.25)"></use><use xlink:href="#SvgjsG5050" transform="translate(151.20000000000002, 264.6) scale(1.8)" fill="rgba(226, 160, 255, 0.25)"></use><use xlink:href="#SvgjsG5046" transform="translate(151.20000000000002, 302.40000000000003) scale(1.8)" fill="rgba(255, 193, 207, 0.25)"></use><use xlink:href="#SvgjsG5050" transform="translate(151.20000000000002, 340.20000000000005) scale(1.8)" fill="rgba(226, 160, 255, 0.25)"></use><use xlink:href="#SvgjsG5043" transform="translate(189.00000000000003, 0) scale(1.8)" fill="rgba(255, 193, 207, 0.25)"></use><use xlink:href="#SvgjsG5052" transform="translate(189.00000000000003, 37.800000000000004) scale(1.8)" fill="rgba(226, 160, 255, 0.25)"></use><use xlink:href="#SvgjsG5051" transform="translate(189.00000000000003, 75.60000000000001) scale(1.8)" fill="rgba(226, 160, 255, 0.25)"></use><use xlink:href="#SvgjsG5046" transform="translate(189.00000000000003, 113.4) scale(1.8)" fill="rgba(255, 193, 207, 0.25)"></use><use xlink:href="#SvgjsG5046" transform="translate(189.00000000000003, 151.20000000000002) scale(1.8)" fill="rgba(255, 193, 207, 0.25)"></use><use xlink:href="#SvgjsG5044" transform="translate(189.00000000000003, 189.00000000000003) scale(1.8)" fill="rgba(255, 193, 207, 0.25)"></use><use xlink:href="#SvgjsG5047" transform="translate(189.00000000000003, 226.8) scale(1.8)" fill="rgba(255, 193, 207, 0.25)"></use><use xlink:href="#SvgjsG5045" transform="translate(189.00000000000003, 264.6) scale(1.8)" fill="rgba(255, 193, 207, 0.25)"></use><use xlink:href="#SvgjsG5049" transform="translate(189.00000000000003, 302.40000000000003) scale(1.8)" fill="rgba(255, 193, 207, 0.25)"></use><use xlink:href="#SvgjsG5049" transform="translate(189.00000000000003, 340.20000000000005) scale(1.8)" fill="rgba(226, 160, 255, 0.25)"></use><use xlink:href="#SvgjsG5051" transform="translate(226.8, 0) scale(1.8)" fill="rgba(255, 193, 207, 0.25)"></use><use xlink:href="#SvgjsG5044" transform="translate(226.8, 37.800000000000004) scale(1.8)" fill="rgba(226, 160, 255, 0.25)"></use><use xlink:href="#SvgjsG5046" transform="translate(226.8, 75.60000000000001) scale(1.8)" fill="rgba(255, 193, 207, 0.25)"></use><use xlink:href="#SvgjsG5044" transform="translate(226.8, 113.4) scale(1.8)" fill="rgba(226, 160, 255, 0.25)"></use><use xlink:href="#SvgjsG5042" transform="translate(226.8, 151.20000000000002) scale(1.8)" fill="rgba(255, 193, 207, 0.25)"></use><use xlink:href="#SvgjsG5045" transform="translate(226.8, 189.00000000000003) scale(1.8)" fill="rgba(226, 160, 255, 0.25)"></use><use xlink:href="#SvgjsG5048" transform="translate(226.8, 226.8) scale(1.8)" fill="rgba(255, 193, 207, 0.25)"></use><use xlink:href="#SvgjsG5043" transform="translate(226.8, 264.6) scale(1.8)" fill="rgba(255, 193, 207, 0.25)"></use><use xlink:href="#SvgjsG5048" transform="translate(226.8, 302.40000000000003) scale(1.8)" fill="rgba(255, 193, 207, 0.25)"></use><use xlink:href="#SvgjsG5047" transform="translate(226.8, 340.20000000000005) scale(1.8)" fill="rgba(255, 193, 207, 0.25)"></use><use xlink:href="#SvgjsG5048" transform="translate(264.6, 0) scale(1.8)" fill="rgba(226, 160, 255, 0.25)"></use><use xlink:href="#SvgjsG5045" transform="translate(264.6, 37.800000000000004) scale(1.8)" fill="rgba(226, 160, 255, 0.25)"></use><use xlink:href="#SvgjsG5045" transform="translate(264.6, 75.60000000000001) scale(1.8)" fill="rgba(226, 160, 255, 0.25)"></use><use xlink:href="#SvgjsG5047" transform="translate(264.6, 113.4) scale(1.8)" fill="rgba(226, 160, 255, 0.25)"></use><use xlink:href="#SvgjsG5049" transform="translate(264.6, 151.20000000000002) scale(1.8)" fill="rgba(226, 160, 255, 0.25)"></use><use xlink:href="#SvgjsG5051" transform="translate(264.6, 189.00000000000003) scale(1.8)" fill="rgba(255, 193, 207, 0.25)"></use><use xlink:href="#SvgjsG5049" transform="translate(264.6, 226.8) scale(1.8)" fill="rgba(226, 160, 255, 0.25)"></use><use xlink:href="#SvgjsG5052" transform="translate(264.6, 264.6) scale(1.8)" fill="rgba(255, 193, 207, 0.25)"></use><use xlink:href="#SvgjsG5046" transform="translate(264.6, 302.40000000000003) scale(1.8)" fill="rgba(255, 193, 207, 0.25)"></use><use xlink:href="#SvgjsG5044" transform="translate(264.6, 340.20000000000005) scale(1.8)" fill="rgba(226, 160, 255, 0.25)"></use><use xlink:href="#SvgjsG5044" transform="translate(302.40000000000003, 0) scale(1.8)" fill="rgba(255, 193, 207, 0.25)"></use><use xlink:href="#SvgjsG5042" transform="translate(302.40000000000003, 37.800000000000004) scale(1.8)" fill="rgba(226, 160, 255, 0.25)"></use><use xlink:href="#SvgjsG5052" transform="translate(302.40000000000003, 75.60000000000001) scale(1.8)" fill="rgba(255, 193, 207, 0.25)"></use><use xlink:href="#SvgjsG5046" transform="translate(302.40000000000003, 113.4) scale(1.8)" fill="rgba(226, 160, 255, 0.25)"></use><use xlink:href="#SvgjsG5043" transform="translate(302.40000000000003, 151.20000000000002) scale(1.8)" fill="rgba(226, 160, 255, 0.25)"></use><use xlink:href="#SvgjsG5051" transform="translate(302.40000000000003, 189.00000000000003) scale(1.8)" fill="rgba(255, 193, 207, 0.25)"></use><use xlink:href="#SvgjsG5051" transform="translate(302.40000000000003, 226.8) scale(1.8)" fill="rgba(255, 193, 207, 0.25)"></use><use xlink:href="#SvgjsG5044" transform="translate(302.40000000000003, 264.6) scale(1.8)" fill="rgba(255, 193, 207, 0.25)"></use><use xlink:href="#SvgjsG5049" transform="translate(302.40000000000003, 302.40000000000003) scale(1.8)" fill="rgba(226, 160, 255, 0.25)"></use><use xlink:href="#SvgjsG5043" transform="translate(302.40000000000003, 340.20000000000005) scale(1.8)" fill="rgba(255, 193, 207, 0.25)"></use><use xlink:href="#SvgjsG5048" transform="translate(340.20000000000005, 0) scale(1.8)" fill="rgba(226, 160, 255, 0.25)"></use><use xlink:href="#SvgjsG5045" transform="translate(340.20000000000005, 37.800000000000004) scale(1.8)" fill="rgba(226, 160, 255, 0.25)"></use><use xlink:href="#SvgjsG5046" transform="translate(340.20000000000005, 75.60000000000001) scale(1.8)" fill="rgba(226, 160, 255, 0.25)"></use><use xlink:href="#SvgjsG5042" transform="translate(340.20000000000005, 113.4) scale(1.8)" fill="rgba(226, 160, 255, 0.25)"></use><use xlink:href="#SvgjsG5048" transform="translate(340.20000000000005, 151.20000000000002) scale(1.8)" fill="rgba(226, 160, 255, 0.25)"></use><use xlink:href="#SvgjsG5048" transform="translate(340.20000000000005, 189.00000000000003) scale(1.8)" fill="rgba(226, 160, 255, 0.25)"></use><use xlink:href="#SvgjsG5048" transform="translate(340.20000000000005, 226.8) scale(1.8)" fill="rgba(226, 160, 255, 0.25)"></use><use xlink:href="#SvgjsG5047" transform="translate(340.20000000000005, 264.6) scale(1.8)" fill="rgba(226, 160, 255, 0.25)"></use><use xlink:href="#SvgjsG5043" transform="translate(340.20000000000005, 302.40000000000003) scale(1.8)" fill="rgba(255, 193, 207, 0.25)"></use><use xlink:href="#SvgjsG5048" transform="translate(340.20000000000005, 340.20000000000005) scale(1.8)" fill="rgba(226, 160, 255, 0.25)"></use></g></defs></svg>